<svg width="100" height="55" viewBox="0 0 100 55" fill="none" xmlns="http://www.w3.org/2000/svg">
<mask id="path-1-outside-1_2_203" maskUnits="userSpaceOnUse" x="1" y="14" width="98" height="43" fill="black">
<rect fill="white" x="1" y="14" width="98" height="43"/>
<path d="M19.4205 23.0909H14.6136C14.5795 22.6932 14.4886 22.3324 14.3409 22.0085C14.1989 21.6847 14 21.4062 13.7443 21.1733C13.4943 20.9347 13.1903 20.7528 12.8324 20.6278C12.4744 20.4972 12.0682 20.4318 11.6136 20.4318C10.8182 20.4318 10.1449 20.625 9.59375 21.0114C9.0483 21.3977 8.63352 21.9517 8.34943 22.6733C8.07102 23.3949 7.93182 24.2614 7.93182 25.2727C7.93182 26.3409 8.07386 27.2358 8.35795 27.9574C8.64773 28.6733 9.06534 29.2131 9.6108 29.5767C10.1563 29.9347 10.8125 30.1136 11.5795 30.1136C12.017 30.1136 12.4091 30.0597 12.7557 29.9517C13.1023 29.8381 13.4034 29.6761 13.6591 29.4659C13.9148 29.2557 14.1222 29.0028 14.2812 28.7074C14.446 28.4062 14.5568 28.0682 14.6136 27.6932L19.4205 27.7273C19.3636 28.4659 19.1563 29.2187 18.7983 29.9858C18.4403 30.7472 17.9318 31.4517 17.2727 32.0994C16.6193 32.7415 15.8097 33.2585 14.8438 33.6506C13.8778 34.0426 12.7557 34.2386 11.4773 34.2386C9.875 34.2386 8.4375 33.8949 7.16477 33.2074C5.89773 32.5199 4.89489 31.5085 4.15625 30.1733C3.4233 28.8381 3.05682 27.2045 3.05682 25.2727C3.05682 23.3295 3.43182 21.6932 4.18182 20.3636C4.93182 19.0284 5.94318 18.0199 7.21591 17.3381C8.48864 16.6506 9.90909 16.3068 11.4773 16.3068C12.5795 16.3068 13.5938 16.4574 14.5199 16.7585C15.446 17.0597 16.2585 17.5 16.9574 18.0795C17.6563 18.6534 18.2188 19.3608 18.6449 20.2017C19.071 21.0426 19.3295 22.0057 19.4205 23.0909ZM25.5653 34H20.4517L26.2131 16.5455H32.6903L38.4517 34H33.3381L29.5199 21.3523H29.3835L25.5653 34ZM24.6108 27.1136H34.2244V30.6591H24.6108V27.1136ZM40.1328 34V16.5455H47.6669C48.9624 16.5455 50.0959 16.7812 51.0675 17.2528C52.0391 17.7244 52.7947 18.4034 53.3345 19.2898C53.8743 20.1761 54.1442 21.2386 54.1442 22.4773C54.1442 23.7273 53.8658 24.7812 53.3089 25.6392C52.7578 26.4972 51.9822 27.1449 50.9822 27.5824C49.9879 28.0199 48.826 28.2386 47.4964 28.2386H42.9964V24.5568H46.5419C47.0987 24.5568 47.5732 24.4886 47.9652 24.3523C48.3629 24.2102 48.6669 23.9858 48.8771 23.679C49.093 23.3722 49.201 22.9716 49.201 22.4773C49.201 21.9773 49.093 21.571 48.8771 21.2585C48.6669 20.9403 48.3629 20.7074 47.9652 20.5597C47.5732 20.4062 47.0987 20.3295 46.5419 20.3295H44.8714V34H40.1328ZM50.3601 25.9886L54.7237 34H49.576L45.3146 25.9886H50.3601ZM3.125 54V36.5455H10.6591C11.9545 36.5455 13.0881 36.7812 14.0597 37.2528C15.0313 37.7244 15.7869 38.4034 16.3267 39.2898C16.8665 40.1761 17.1364 41.2386 17.1364 42.4773C17.1364 43.7273 16.858 44.7812 16.3011 45.6392C15.75 46.4972 14.9744 47.1449 13.9744 47.5824C12.9801 48.0199 11.8182 48.2386 10.4886 48.2386H5.98864V44.5568H9.53409C10.0909 44.5568 10.5653 44.4886 10.9574 44.3523C11.3551 44.2102 11.6591 43.9858 11.8693 43.679C12.0852 43.3722 12.1932 42.9716 12.1932 42.4773C12.1932 41.9773 12.0852 41.571 11.8693 41.2585C11.6591 40.9403 11.3551 40.7074 10.9574 40.5597C10.5653 40.4062 10.0909 40.3295 9.53409 40.3295H7.86364V54H3.125ZM13.3523 45.9886L17.7159 54H12.5682L8.30682 45.9886H13.3523ZM23.6903 54H18.5767L24.3381 36.5455H30.8153L36.5767 54H31.4631L27.6449 41.3523H27.5085L23.6903 54ZM22.7358 47.1136H32.3494V50.6591H22.7358V47.1136ZM53.733 43.0909H48.9261C48.892 42.6932 48.8011 42.3324 48.6534 42.0085C48.5114 41.6847 48.3125 41.4062 48.0568 41.1733C47.8068 40.9347 47.5028 40.7528 47.1449 40.6278C46.7869 40.4972 46.3807 40.4318 45.9261 40.4318C45.1307 40.4318 44.4574 40.625 43.9062 41.0114C43.3608 41.3977 42.946 41.9517 42.6619 42.6733C42.3835 43.3949 42.2443 44.2614 42.2443 45.2727C42.2443 46.3409 42.3864 47.2358 42.6705 47.9574C42.9602 48.6733 43.3778 49.2131 43.9233 49.5767C44.4688 49.9347 45.125 50.1136 45.892 50.1136C46.3295 50.1136 46.7216 50.0597 47.0682 49.9517C47.4148 49.8381 47.7159 49.6761 47.9716 49.4659C48.2273 49.2557 48.4347 49.0028 48.5938 48.7074C48.7585 48.4062 48.8693 48.0682 48.9261 47.6932L53.733 47.7273C53.6761 48.4659 53.4688 49.2187 53.1108 49.9858C52.7528 50.7472 52.2443 51.4517 51.5852 52.0994C50.9318 52.7415 50.1222 53.2585 49.1562 53.6506C48.1903 54.0426 47.0682 54.2386 45.7898 54.2386C44.1875 54.2386 42.75 53.8949 41.4773 53.2074C40.2102 52.5199 39.2074 51.5085 38.4688 50.1733C37.7358 48.8381 37.3693 47.2045 37.3693 45.2727C37.3693 43.3295 37.7443 41.6932 38.4943 40.3636C39.2443 39.0284 40.2557 38.0199 41.5284 37.3381C42.8011 36.6506 44.2216 36.3068 45.7898 36.3068C46.892 36.3068 47.9063 36.4574 48.8324 36.7585C49.7585 37.0597 50.571 37.5 51.2699 38.0795C51.9688 38.6534 52.5313 39.3608 52.9574 40.2017C53.3835 41.0426 53.642 42.0057 53.733 43.0909ZM60.6214 36.5455V54H55.8828V36.5455H60.6214ZM77.9695 36.5455V54H74.0149L67.7081 44.8295H67.6058V54H62.8672V36.5455H66.8899L73.0945 45.6818H73.2308V36.5455H77.9695ZM91.5462 42.3068C91.4723 42.0057 91.3558 41.7415 91.1967 41.5142C91.0376 41.2812 90.8388 41.0852 90.6001 40.9261C90.3672 40.7614 90.0945 40.6392 89.782 40.5597C89.4751 40.4744 89.1371 40.4318 88.7678 40.4318C87.9723 40.4318 87.2933 40.6222 86.7308 41.0028C86.174 41.3835 85.7479 41.9318 85.4524 42.6477C85.1626 43.3636 85.0178 44.2273 85.0178 45.2386C85.0178 46.2614 85.157 47.1364 85.4354 47.8636C85.7138 48.5909 86.1286 49.1477 86.6797 49.5341C87.2308 49.9205 87.9155 50.1136 88.7337 50.1136C89.4553 50.1136 90.0547 50.0085 90.532 49.7983C91.0149 49.5881 91.3757 49.2898 91.6143 48.9034C91.853 48.517 91.9723 48.0625 91.9723 47.5398L92.7905 47.625H88.8018V44.25H96.5405V46.6705C96.5405 48.2614 96.2024 49.6222 95.5263 50.7528C94.8558 51.8778 93.9297 52.7415 92.7479 53.3438C91.5717 53.9403 90.2223 54.2386 88.6996 54.2386C87.0007 54.2386 85.5092 53.8778 84.2251 53.1562C82.9411 52.4347 81.9382 51.4062 81.2166 50.071C80.5007 48.7358 80.1428 47.1477 80.1428 45.3068C80.1428 43.8636 80.3615 42.5852 80.799 41.4716C81.2422 40.358 81.8558 39.4176 82.6399 38.6506C83.424 37.8778 84.3303 37.2955 85.3587 36.9034C86.3871 36.5057 87.4893 36.3068 88.6655 36.3068C89.6996 36.3068 90.6598 36.4545 91.5462 36.75C92.4382 37.0398 93.2251 37.4545 93.907 37.9943C94.5945 38.5284 95.1484 39.1619 95.5689 39.8949C95.9893 40.6278 96.245 41.4318 96.3359 42.3068H91.5462Z"/>
</mask>
<path d="M19.4205 23.0909H14.6136C14.5795 22.6932 14.4886 22.3324 14.3409 22.0085C14.1989 21.6847 14 21.4062 13.7443 21.1733C13.4943 20.9347 13.1903 20.7528 12.8324 20.6278C12.4744 20.4972 12.0682 20.4318 11.6136 20.4318C10.8182 20.4318 10.1449 20.625 9.59375 21.0114C9.0483 21.3977 8.63352 21.9517 8.34943 22.6733C8.07102 23.3949 7.93182 24.2614 7.93182 25.2727C7.93182 26.3409 8.07386 27.2358 8.35795 27.9574C8.64773 28.6733 9.06534 29.2131 9.6108 29.5767C10.1563 29.9347 10.8125 30.1136 11.5795 30.1136C12.017 30.1136 12.4091 30.0597 12.7557 29.9517C13.1023 29.8381 13.4034 29.6761 13.6591 29.4659C13.9148 29.2557 14.1222 29.0028 14.2812 28.7074C14.446 28.4062 14.5568 28.0682 14.6136 27.6932L19.4205 27.7273C19.3636 28.4659 19.1563 29.2187 18.7983 29.9858C18.4403 30.7472 17.9318 31.4517 17.2727 32.0994C16.6193 32.7415 15.8097 33.2585 14.8438 33.6506C13.8778 34.0426 12.7557 34.2386 11.4773 34.2386C9.875 34.2386 8.4375 33.8949 7.16477 33.2074C5.89773 32.5199 4.89489 31.5085 4.15625 30.1733C3.4233 28.8381 3.05682 27.2045 3.05682 25.2727C3.05682 23.3295 3.43182 21.6932 4.18182 20.3636C4.93182 19.0284 5.94318 18.0199 7.21591 17.3381C8.48864 16.6506 9.90909 16.3068 11.4773 16.3068C12.5795 16.3068 13.5938 16.4574 14.5199 16.7585C15.446 17.0597 16.2585 17.5 16.9574 18.0795C17.6563 18.6534 18.2188 19.3608 18.6449 20.2017C19.071 21.0426 19.3295 22.0057 19.4205 23.0909ZM25.5653 34H20.4517L26.2131 16.5455H32.6903L38.4517 34H33.3381L29.5199 21.3523H29.3835L25.5653 34ZM24.6108 27.1136H34.2244V30.6591H24.6108V27.1136ZM40.1328 34V16.5455H47.6669C48.9624 16.5455 50.0959 16.7812 51.0675 17.2528C52.0391 17.7244 52.7947 18.4034 53.3345 19.2898C53.8743 20.1761 54.1442 21.2386 54.1442 22.4773C54.1442 23.7273 53.8658 24.7812 53.3089 25.6392C52.7578 26.4972 51.9822 27.1449 50.9822 27.5824C49.9879 28.0199 48.826 28.2386 47.4964 28.2386H42.9964V24.5568H46.5419C47.0987 24.5568 47.5732 24.4886 47.9652 24.3523C48.3629 24.2102 48.6669 23.9858 48.8771 23.679C49.093 23.3722 49.201 22.9716 49.201 22.4773C49.201 21.9773 49.093 21.571 48.8771 21.2585C48.6669 20.9403 48.3629 20.7074 47.9652 20.5597C47.5732 20.4062 47.0987 20.3295 46.5419 20.3295H44.8714V34H40.1328ZM50.3601 25.9886L54.7237 34H49.576L45.3146 25.9886H50.3601ZM3.125 54V36.5455H10.6591C11.9545 36.5455 13.0881 36.7812 14.0597 37.2528C15.0313 37.7244 15.7869 38.4034 16.3267 39.2898C16.8665 40.1761 17.1364 41.2386 17.1364 42.4773C17.1364 43.7273 16.858 44.7812 16.3011 45.6392C15.75 46.4972 14.9744 47.1449 13.9744 47.5824C12.9801 48.0199 11.8182 48.2386 10.4886 48.2386H5.98864V44.5568H9.53409C10.0909 44.5568 10.5653 44.4886 10.9574 44.3523C11.3551 44.2102 11.6591 43.9858 11.8693 43.679C12.0852 43.3722 12.1932 42.9716 12.1932 42.4773C12.1932 41.9773 12.0852 41.571 11.8693 41.2585C11.6591 40.9403 11.3551 40.7074 10.9574 40.5597C10.5653 40.4062 10.0909 40.3295 9.53409 40.3295H7.86364V54H3.125ZM13.3523 45.9886L17.7159 54H12.5682L8.30682 45.9886H13.3523ZM23.6903 54H18.5767L24.3381 36.5455H30.8153L36.5767 54H31.4631L27.6449 41.3523H27.5085L23.6903 54ZM22.7358 47.1136H32.3494V50.6591H22.7358V47.1136ZM53.733 43.0909H48.9261C48.892 42.6932 48.8011 42.3324 48.6534 42.0085C48.5114 41.6847 48.3125 41.4062 48.0568 41.1733C47.8068 40.9347 47.5028 40.7528 47.1449 40.6278C46.7869 40.4972 46.3807 40.4318 45.9261 40.4318C45.1307 40.4318 44.4574 40.625 43.9062 41.0114C43.3608 41.3977 42.946 41.9517 42.6619 42.6733C42.3835 43.3949 42.2443 44.2614 42.2443 45.2727C42.2443 46.3409 42.3864 47.2358 42.6705 47.9574C42.9602 48.6733 43.3778 49.2131 43.9233 49.5767C44.4688 49.9347 45.125 50.1136 45.892 50.1136C46.3295 50.1136 46.7216 50.0597 47.0682 49.9517C47.4148 49.8381 47.7159 49.6761 47.9716 49.4659C48.2273 49.2557 48.4347 49.0028 48.5938 48.7074C48.7585 48.4062 48.8693 48.0682 48.9261 47.6932L53.733 47.7273C53.6761 48.4659 53.4688 49.2187 53.1108 49.9858C52.7528 50.7472 52.2443 51.4517 51.5852 52.0994C50.9318 52.7415 50.1222 53.2585 49.1562 53.6506C48.1903 54.0426 47.0682 54.2386 45.7898 54.2386C44.1875 54.2386 42.75 53.8949 41.4773 53.2074C40.2102 52.5199 39.2074 51.5085 38.4688 50.1733C37.7358 48.8381 37.3693 47.2045 37.3693 45.2727C37.3693 43.3295 37.7443 41.6932 38.4943 40.3636C39.2443 39.0284 40.2557 38.0199 41.5284 37.3381C42.8011 36.6506 44.2216 36.3068 45.7898 36.3068C46.892 36.3068 47.9063 36.4574 48.8324 36.7585C49.7585 37.0597 50.571 37.5 51.2699 38.0795C51.9688 38.6534 52.5313 39.3608 52.9574 40.2017C53.3835 41.0426 53.642 42.0057 53.733 43.0909ZM60.6214 36.5455V54H55.8828V36.5455H60.6214ZM77.9695 36.5455V54H74.0149L67.7081 44.8295H67.6058V54H62.8672V36.5455H66.8899L73.0945 45.6818H73.2308V36.5455H77.9695ZM91.5462 42.3068C91.4723 42.0057 91.3558 41.7415 91.1967 41.5142C91.0376 41.2812 90.8388 41.0852 90.6001 40.9261C90.3672 40.7614 90.0945 40.6392 89.782 40.5597C89.4751 40.4744 89.1371 40.4318 88.7678 40.4318C87.9723 40.4318 87.2933 40.6222 86.7308 41.0028C86.174 41.3835 85.7479 41.9318 85.4524 42.6477C85.1626 43.3636 85.0178 44.2273 85.0178 45.2386C85.0178 46.2614 85.157 47.1364 85.4354 47.8636C85.7138 48.5909 86.1286 49.1477 86.6797 49.5341C87.2308 49.9205 87.9155 50.1136 88.7337 50.1136C89.4553 50.1136 90.0547 50.0085 90.532 49.7983C91.0149 49.5881 91.3757 49.2898 91.6143 48.9034C91.853 48.517 91.9723 48.0625 91.9723 47.5398L92.7905 47.625H88.8018V44.25H96.5405V46.6705C96.5405 48.2614 96.2024 49.6222 95.5263 50.7528C94.8558 51.8778 93.9297 52.7415 92.7479 53.3438C91.5717 53.9403 90.2223 54.2386 88.6996 54.2386C87.0007 54.2386 85.5092 53.8778 84.2251 53.1562C82.9411 52.4347 81.9382 51.4062 81.2166 50.071C80.5007 48.7358 80.1428 47.1477 80.1428 45.3068C80.1428 43.8636 80.3615 42.5852 80.799 41.4716C81.2422 40.358 81.8558 39.4176 82.6399 38.6506C83.424 37.8778 84.3303 37.2955 85.3587 36.9034C86.3871 36.5057 87.4893 36.3068 88.6655 36.3068C89.6996 36.3068 90.6598 36.4545 91.5462 36.75C92.4382 37.0398 93.2251 37.4545 93.907 37.9943C94.5945 38.5284 95.1484 39.1619 95.5689 39.8949C95.9893 40.6278 96.245 41.4318 96.3359 42.3068H91.5462Z" fill="white"/>
<path d="M19.4205 23.0909V25.0909C19.9799 25.0909 20.5138 24.8566 20.8925 24.4448C21.2712 24.033 21.4602 23.4815 21.4135 22.924L19.4205 23.0909ZM14.6136 23.0909L12.6209 23.2617C12.7096 24.2963 13.5753 25.0909 14.6136 25.0909V23.0909ZM14.3409 22.0085L12.5093 22.8118C12.5132 22.8208 12.5172 22.8297 12.5213 22.8385L14.3409 22.0085ZM13.7443 21.1733L12.3634 22.62C12.3746 22.6307 12.3859 22.6413 12.3973 22.6517L13.7443 21.1733ZM12.8324 20.6278L12.1465 22.5066C12.1553 22.5098 12.1642 22.5129 12.173 22.516L12.8324 20.6278ZM9.59375 21.0114L8.44568 19.3737L8.43772 19.3793L9.59375 21.0114ZM8.34943 22.6733L6.48842 21.9406L6.4835 21.9534L8.34943 22.6733ZM8.35795 27.9574L6.49699 28.6901C6.49932 28.696 6.50167 28.7019 6.50406 28.7078L8.35795 27.9574ZM9.6108 29.5767L8.5014 31.2408C8.50542 31.2435 8.50944 31.2461 8.51348 31.2488L9.6108 29.5767ZM12.7557 29.9517L13.3504 31.8612C13.3599 31.8583 13.3694 31.8553 13.3788 31.8522L12.7557 29.9517ZM13.6591 29.4659L14.9293 31.0108L14.9293 31.0108L13.6591 29.4659ZM14.2812 28.7074L12.5267 27.7473L12.5203 27.7592L14.2812 28.7074ZM14.6136 27.6932L14.6278 25.6932C13.6336 25.6862 12.7851 26.4105 12.6362 27.3936L14.6136 27.6932ZM19.4205 27.7273L21.4146 27.8807C21.4571 27.3277 21.2681 26.7819 20.8927 26.3736C20.5173 25.9653 19.9892 25.7313 19.4346 25.7273L19.4205 27.7273ZM18.7983 29.9858L20.6082 30.8367L20.6107 30.8316L18.7983 29.9858ZM17.2727 32.0994L18.6745 33.526L18.6746 33.5259L17.2727 32.0994ZM7.16477 33.2074L6.21094 34.9653L6.21423 34.9671L7.16477 33.2074ZM4.15625 30.1733L2.40302 31.1357L2.40618 31.1414L4.15625 30.1733ZM4.18182 20.3636L5.92378 21.3463L5.92556 21.3431L4.18182 20.3636ZM7.21591 17.3381L8.16036 19.101L8.16645 19.0977L7.21591 17.3381ZM14.5199 16.7585L15.1383 14.8565L15.1383 14.8565L14.5199 16.7585ZM16.9574 18.0795L15.6807 19.6191L15.6882 19.6252L16.9574 18.0795ZM18.6449 20.2017L16.8609 21.1058L16.8609 21.1058L18.6449 20.2017ZM19.4205 21.0909H14.6136V25.0909H19.4205V21.0909ZM16.6063 22.9201C16.555 22.3218 16.414 21.7343 16.1605 21.1785L12.5213 22.8385C12.5632 22.9305 12.604 23.0646 12.6209 23.2617L16.6063 22.9201ZM16.1725 21.2052C15.9205 20.6308 15.5587 20.1208 15.0913 19.6949L12.3973 22.6517C12.4413 22.6917 12.4772 22.7385 12.5093 22.8118L16.1725 21.2052ZM15.1253 19.7266C14.6497 19.2726 14.0926 18.9495 13.4918 18.7397L12.173 22.516C12.2881 22.5562 12.339 22.5967 12.3634 22.62L15.1253 19.7266ZM13.5183 18.7491C12.9027 18.5244 12.2582 18.4318 11.6136 18.4318V22.4318C11.8782 22.4318 12.0461 22.4699 12.1465 22.5066L13.5183 18.7491ZM11.6136 18.4318C10.4839 18.4318 9.39091 18.7111 8.44569 19.3737L10.7418 22.649C10.8989 22.5389 11.1524 22.4318 11.6136 22.4318V18.4318ZM8.43772 19.3793C7.52649 20.0248 6.8917 20.9164 6.48846 21.9406L10.2104 23.406C10.3753 22.987 10.5701 22.7707 10.7498 22.6434L8.43772 19.3793ZM6.4835 21.9534C6.09386 22.9633 5.93182 24.087 5.93182 25.2727H9.93182C9.93182 24.4357 10.0482 23.8265 10.2154 23.3932L6.4835 21.9534ZM5.93182 25.2727C5.93182 26.5035 6.09346 27.6651 6.49699 28.6901L10.2189 27.2247C10.0543 26.8065 9.93182 26.1783 9.93182 25.2727H5.93182ZM6.50406 28.7078C6.91711 29.7282 7.56549 30.6169 8.5014 31.2408L10.7202 27.9126C10.5652 27.8093 10.3783 27.6183 10.2118 27.207L6.50406 28.7078ZM8.51348 31.2488C9.43879 31.856 10.4924 32.1136 11.5795 32.1136V28.1136C11.1326 28.1136 10.8737 28.0133 10.7081 27.9046L8.51348 31.2488ZM11.5795 32.1136C12.1788 32.1136 12.7765 32.04 13.3504 31.8612L12.1609 28.0422C12.0416 28.0793 11.8553 28.1136 11.5795 28.1136V32.1136ZM13.3788 31.8522C13.9372 31.6691 14.4632 31.394 14.9293 31.0108L12.3889 27.9211C12.3436 27.9583 12.2673 28.0071 12.1326 28.0512L13.3788 31.8522ZM14.9293 31.0108C15.3886 30.6331 15.7616 30.1767 16.0422 29.6556L12.5203 27.7592C12.4827 27.829 12.4409 27.8782 12.3889 27.9211L14.9293 31.0108ZM16.0358 29.6674C16.3241 29.1405 16.5028 28.5751 16.5911 27.9928L12.6362 27.3936C12.6108 27.5613 12.5679 27.672 12.5267 27.7474L16.0358 29.6674ZM14.5995 29.6931L19.4063 29.7272L19.4346 25.7273L14.6278 25.6932L14.5995 29.6931ZM17.4263 27.5739C17.3904 28.041 17.2565 28.5602 16.9859 29.14L20.6107 30.8316C21.056 29.8773 21.3369 28.8908 21.4146 27.8807L17.4263 27.5739ZM16.9884 29.1349C16.7407 29.6616 16.3775 30.1751 15.8709 30.673L18.6746 33.5259C19.4861 32.7284 20.14 31.8327 20.6082 30.8367L16.9884 29.1349ZM15.871 30.6729C15.4281 31.108 14.8484 31.4902 14.0916 31.7974L15.5959 35.5037C16.7709 35.0268 17.8105 34.3749 18.6745 33.526L15.871 30.6729ZM14.0916 31.7974C13.412 32.0732 12.5545 32.2386 11.4773 32.2386V36.2386C12.9569 36.2386 14.3437 36.012 15.5959 35.5037L14.0916 31.7974ZM11.4773 32.2386C10.1705 32.2386 9.06559 31.961 8.11531 31.4477L6.21423 34.9671C7.80941 35.8287 9.57955 36.2386 11.4773 36.2386V32.2386ZM8.11861 31.4495C7.20685 30.9548 6.47162 30.2271 5.90632 29.2052L2.40618 31.1414C3.31815 32.79 4.5886 34.085 6.21094 34.9653L8.11861 31.4495ZM5.90947 29.2109C5.3762 28.2394 5.05682 26.9565 5.05682 25.2727H1.05682C1.05682 27.4526 1.47039 29.4367 2.40303 31.1357L5.90947 29.2109ZM5.05682 25.2727C5.05682 23.5817 5.38307 22.3048 5.92378 21.3463L2.43986 19.381C1.48056 21.0816 1.05682 23.0774 1.05682 25.2727H5.05682ZM5.92556 21.3431C6.50097 20.3187 7.2439 19.592 8.16035 19.101L6.27147 15.5751C4.64247 16.4478 3.36267 17.7381 2.43807 19.3842L5.92556 21.3431ZM8.16645 19.0977C9.12299 18.581 10.2123 18.3068 11.4773 18.3068V14.3068C9.60584 14.3068 7.85428 14.7201 6.26537 15.5784L8.16645 19.0977ZM11.4773 18.3068C12.3968 18.3068 13.1994 18.4322 13.9015 18.6605L15.1383 14.8565C13.9881 14.4825 12.7623 14.3068 11.4773 14.3068V18.3068ZM13.9014 18.6605C14.6049 18.8892 15.1902 19.2123 15.6807 19.6191L18.2341 16.54C17.3269 15.7877 16.2872 15.2301 15.1383 14.8565L13.9014 18.6605ZM15.6882 19.6252C16.1637 20.0157 16.5546 20.5013 16.8609 21.1058L20.4289 19.2976C19.8829 18.2202 19.1488 17.2911 18.2266 16.5339L15.6882 19.6252ZM16.8609 21.1058C17.1539 21.6839 17.3547 22.3901 17.4274 23.2579L21.4135 22.924C21.3043 21.6213 20.9882 20.4013 20.4289 19.2976L16.8609 21.1058ZM25.5653 34V36C26.4473 36 27.2251 35.4223 27.48 34.578L25.5653 34ZM20.4517 34L18.5525 33.3731C18.3513 33.9826 18.4549 34.6517 18.8309 35.1718C19.207 35.6919 19.8099 36 20.4517 36V34ZM26.2131 16.5455V14.5455C25.35 14.5455 24.5844 15.099 24.3139 15.9186L26.2131 16.5455ZM32.6903 16.5455L34.5896 15.9186C34.319 15.099 33.5534 14.5455 32.6903 14.5455V16.5455ZM38.4517 34V36C39.0936 36 39.6964 35.6919 40.0725 35.1718C40.4485 34.6517 40.5521 33.9826 40.3509 33.3731L38.4517 34ZM33.3381 34L31.4234 34.578C31.6783 35.4223 32.4561 36 33.3381 36V34ZM29.5199 21.3523L31.4345 20.7743C31.1797 19.93 30.4018 19.3523 29.5199 19.3523V21.3523ZM29.3835 21.3523V19.3523C28.5016 19.3523 27.7238 19.93 27.4689 20.7743L29.3835 21.3523ZM24.6108 27.1136V25.1136C23.5062 25.1136 22.6108 26.0091 22.6108 27.1136H24.6108ZM34.2244 27.1136H36.2244C36.2244 26.0091 35.329 25.1136 34.2244 25.1136V27.1136ZM34.2244 30.6591V32.6591C35.329 32.6591 36.2244 31.7637 36.2244 30.6591H34.2244ZM24.6108 30.6591H22.6108C22.6108 31.7637 23.5062 32.6591 24.6108 32.6591V30.6591ZM25.5653 32H20.4517V36H25.5653V32ZM22.3509 34.6269L28.1123 17.1723L24.3139 15.9186L18.5525 33.3731L22.3509 34.6269ZM26.2131 18.5455H32.6903V14.5455H26.2131V18.5455ZM30.7911 17.1723L36.5525 34.6269L40.3509 33.3731L34.5896 15.9186L30.7911 17.1723ZM38.4517 32H33.3381V36H38.4517V32ZM35.2527 33.422L31.4345 20.7743L27.6052 21.9303L31.4234 34.578L35.2527 33.422ZM29.5199 19.3523H29.3835V23.3523H29.5199V19.3523ZM27.4689 20.7743L23.6507 33.422L27.48 34.578L31.2982 21.9303L27.4689 20.7743ZM24.6108 29.1136H34.2244V25.1136H24.6108V29.1136ZM32.2244 27.1136V30.6591H36.2244V27.1136H32.2244ZM34.2244 28.6591H24.6108V32.6591H34.2244V28.6591ZM26.6108 30.6591V27.1136H22.6108V30.6591H26.6108ZM40.1328 34H38.1328C38.1328 35.1046 39.0282 36 40.1328 36V34ZM40.1328 16.5455V14.5455C39.0282 14.5455 38.1328 15.4409 38.1328 16.5455H40.1328ZM53.3345 19.2898L55.0427 18.2495L55.0427 18.2495L53.3345 19.2898ZM53.3089 25.6392L51.6313 24.5504L51.6262 24.5583L53.3089 25.6392ZM50.9822 27.5824L50.1806 25.7501L50.1768 25.7518L50.9822 27.5824ZM42.9964 28.2386H40.9964C40.9964 29.3432 41.8919 30.2386 42.9964 30.2386V28.2386ZM42.9964 24.5568V22.5568C41.8919 22.5568 40.9964 23.4522 40.9964 24.5568H42.9964ZM47.9652 24.3523L48.6222 26.2413C48.6275 26.2395 48.6327 26.2376 48.6379 26.2358L47.9652 24.3523ZM48.8771 23.679L47.2415 22.528C47.2367 22.5348 47.232 22.5416 47.2273 22.5485L48.8771 23.679ZM48.8771 21.2585L47.2085 22.361C47.2161 22.3726 47.2238 22.384 47.2317 22.3954L48.8771 21.2585ZM47.9652 20.5597L47.2364 22.4221C47.2472 22.4264 47.258 22.4305 47.2688 22.4345L47.9652 20.5597ZM44.8714 20.3295V18.3295C43.7669 18.3295 42.8714 19.225 42.8714 20.3295H44.8714ZM44.8714 34V36C45.976 36 46.8714 35.1046 46.8714 34H44.8714ZM50.3601 25.9886L52.1164 25.032C51.7662 24.3889 51.0924 23.9886 50.3601 23.9886V25.9886ZM54.7237 34V36C55.4294 36 56.0828 35.6281 56.4432 35.0214C56.8036 34.4148 56.8176 33.663 56.4801 33.0433L54.7237 34ZM49.576 34L47.8103 34.9392C48.1575 35.592 48.8366 36 49.576 36V34ZM45.3146 25.9886V23.9886C44.6125 23.9886 43.9618 24.3568 43.6002 24.9587C43.2386 25.5606 43.2192 26.308 43.5489 26.9279L45.3146 25.9886ZM42.1328 34V16.5455H38.1328V34H42.1328ZM40.1328 18.5455H47.6669V14.5455H40.1328V18.5455ZM47.6669 18.5455C48.7194 18.5455 49.5437 18.7364 50.1942 19.0521L51.9408 15.4536C50.648 14.8261 49.2053 14.5455 47.6669 14.5455V18.5455ZM50.1942 19.0521C50.8352 19.3632 51.2946 19.7853 51.6263 20.33L55.0427 18.2495C54.2949 17.0215 53.243 16.0856 51.9408 15.4536L50.1942 19.0521ZM51.6263 20.33C51.9412 20.847 52.1442 21.534 52.1442 22.4773H56.1442C56.1442 20.9432 55.8074 19.5053 55.0427 18.2495L51.6263 20.33ZM52.1442 22.4773C52.1442 23.4272 51.9352 24.0822 51.6313 24.5504L54.9866 26.728C55.7964 25.4803 56.1442 24.0273 56.1442 22.4773H52.1442ZM51.6262 24.5583C51.3035 25.0607 50.8459 25.459 50.1806 25.7501L51.7839 29.4147C53.1185 28.8308 54.2121 27.9337 54.9917 26.7202L51.6262 24.5583ZM50.1768 25.7518C49.4864 26.0555 48.6092 26.2386 47.4964 26.2386V30.2386C49.0427 30.2386 50.4894 29.9843 51.7877 29.413L50.1768 25.7518ZM47.4964 26.2386H42.9964V30.2386H47.4964V26.2386ZM44.9964 28.2386V24.5568H40.9964V28.2386H44.9964ZM42.9964 26.5568H46.5419V22.5568H42.9964V26.5568ZM46.5419 26.5568C47.2509 26.5568 47.9606 26.4714 48.6222 26.2413L47.3082 22.4633C47.1857 22.5059 46.9465 22.5568 46.5419 22.5568V26.5568ZM48.6379 26.2358C49.3765 25.972 50.047 25.51 50.527 24.8094L47.2273 22.5485C47.2378 22.5331 47.2505 22.5175 47.2648 22.5027C47.2791 22.4879 47.2926 22.4765 47.3035 22.4684C47.3262 22.4517 47.3285 22.4559 47.2925 22.4688L48.6379 26.2358ZM50.5127 24.83C51.0308 24.0938 51.201 23.2541 51.201 22.4773H47.201C47.201 22.5812 47.1894 22.6261 47.1889 22.628C47.1889 22.6282 47.1918 22.6175 47.2003 22.5987C47.209 22.5797 47.2224 22.5552 47.2415 22.528L50.5127 24.83ZM51.201 22.4773C51.201 21.6981 51.0323 20.8594 50.5226 20.1217L47.2317 22.3954C47.1954 22.3429 47.186 22.3072 47.1871 22.3112C47.1891 22.3187 47.201 22.369 47.201 22.4773H51.201ZM50.5458 20.156C50.0754 19.4441 49.4102 18.9629 48.6616 18.6848L47.2688 22.4345C47.3009 22.4464 47.2971 22.4496 47.2749 22.4326C47.2644 22.4245 47.2521 22.4137 47.2395 22.4002C47.227 22.3868 47.2165 22.3733 47.2085 22.361L50.5458 20.156ZM48.694 18.6972C48.0081 18.4288 47.2721 18.3295 46.5419 18.3295V22.3295C46.9254 22.3295 47.1382 22.3837 47.2364 22.4221L48.694 18.6972ZM46.5419 18.3295H44.8714V22.3295H46.5419V18.3295ZM42.8714 20.3295V34H46.8714V20.3295H42.8714ZM44.8714 32H40.1328V36H44.8714V32ZM48.6037 26.9453L52.9674 34.9567L56.4801 33.0433L52.1164 25.032L48.6037 26.9453ZM54.7237 32H49.576V36H54.7237V32ZM51.3417 33.0608L47.0804 25.0494L43.5489 26.9279L47.8103 34.9392L51.3417 33.0608ZM45.3146 27.9886H50.3601V23.9886H45.3146V27.9886ZM3.125 54H1.125C1.125 55.1046 2.02043 56 3.125 56L3.125 54ZM3.125 36.5455V34.5455C2.02043 34.5455 1.125 35.4409 1.125 36.5455H3.125ZM16.3267 39.2898L18.0349 38.2495L18.0349 38.2495L16.3267 39.2898ZM16.3011 45.6392L14.6235 44.5504L14.6184 44.5583L16.3011 45.6392ZM13.9744 47.5824L13.1728 45.7501L13.169 45.7518L13.9744 47.5824ZM5.98864 48.2386H3.98864C3.98864 49.3432 4.88407 50.2386 5.98864 50.2386V48.2386ZM5.98864 44.5568V42.5568C4.88407 42.5568 3.98864 43.4522 3.98864 44.5568H5.98864ZM10.9574 44.3523L11.6144 46.2413C11.6196 46.2395 11.6249 46.2376 11.6301 46.2358L10.9574 44.3523ZM11.8693 43.679L10.2337 42.528C10.2289 42.5348 10.2242 42.5416 10.2195 42.5485L11.8693 43.679ZM11.8693 41.2585L10.2006 42.361C10.2083 42.3726 10.216 42.384 10.2239 42.3954L11.8693 41.2585ZM10.9574 40.5597L10.2286 42.4221C10.2394 42.4264 10.2502 42.4305 10.261 42.4345L10.9574 40.5597ZM7.86364 40.3295V38.3295C6.75907 38.3295 5.86364 39.225 5.86364 40.3295H7.86364ZM7.86364 54V56C8.96821 56 9.86364 55.1046 9.86364 54H7.86364ZM13.3523 45.9886L15.1086 45.032C14.7583 44.3889 14.0846 43.9886 13.3523 43.9886V45.9886ZM17.7159 54V56C18.4216 56 19.075 55.6281 19.4354 55.0214C19.7958 54.4148 19.8098 53.663 19.4723 53.0433L17.7159 54ZM12.5682 54L10.8024 54.9392C11.1497 55.592 11.8288 56 12.5682 56V54ZM8.30682 45.9886V43.9886C7.60469 43.9886 6.95398 44.3568 6.5924 44.9587C6.23082 45.5606 6.21134 46.308 6.54107 46.9279L8.30682 45.9886ZM5.125 54V36.5455H1.125V54H5.125ZM3.125 38.5455H10.6591V34.5455H3.125V38.5455ZM10.6591 38.5455C11.7116 38.5455 12.5359 38.7364 13.1863 39.0521L14.933 35.4536C13.6402 34.8261 12.1975 34.5455 10.6591 34.5455V38.5455ZM13.1863 39.0521C13.8274 39.3632 14.2868 39.7853 14.6185 40.33L18.0349 38.2495C17.2871 37.0215 16.2351 36.0856 14.933 35.4536L13.1863 39.0521ZM14.6185 40.33C14.9334 40.847 15.1364 41.534 15.1364 42.4773H19.1364C19.1364 40.9432 18.7996 39.5053 18.0349 38.2495L14.6185 40.33ZM15.1364 42.4773C15.1364 43.4272 14.9274 44.0822 14.6235 44.5504L17.9788 46.728C18.7885 45.4803 19.1364 44.0273 19.1364 42.4773H15.1364ZM14.6184 44.5583C14.2957 45.0607 13.8381 45.459 13.1728 45.7501L14.7761 49.4147C16.1107 48.8308 17.2043 47.9337 17.9839 46.7202L14.6184 44.5583ZM13.169 45.7518C12.4786 46.0555 11.6014 46.2386 10.4886 46.2386V50.2386C12.0349 50.2386 13.4816 49.9843 14.7799 49.413L13.169 45.7518ZM10.4886 46.2386H5.98864V50.2386H10.4886V46.2386ZM7.98864 48.2386V44.5568H3.98864V48.2386H7.98864ZM5.98864 46.5568H9.53409V42.5568H5.98864V46.5568ZM9.53409 46.5568C10.2431 46.5568 10.9528 46.4714 11.6144 46.2413L10.3003 42.4633C10.1779 42.5059 9.9387 42.5568 9.53409 42.5568V46.5568ZM11.6301 46.2358C12.3687 45.972 13.0392 45.51 13.5192 44.8094L10.2195 42.5485C10.23 42.5331 10.2427 42.5175 10.257 42.5027C10.2713 42.4879 10.2848 42.4765 10.2957 42.4684C10.3184 42.4517 10.3207 42.4559 10.2847 42.4688L11.6301 46.2358ZM13.5049 44.83C14.023 44.0938 14.1932 43.2541 14.1932 42.4773H10.1932C10.1932 42.5812 10.1816 42.6261 10.1811 42.628C10.1811 42.6282 10.184 42.6175 10.1925 42.5987C10.2012 42.5797 10.2145 42.5552 10.2337 42.528L13.5049 44.83ZM14.1932 42.4773C14.1932 41.6981 14.0245 40.8594 13.5148 40.1217L10.2239 42.3954C10.1876 42.3429 10.1782 42.3072 10.1793 42.3112C10.1813 42.3187 10.1932 42.369 10.1932 42.4773H14.1932ZM13.538 40.156C13.0676 39.4441 12.4024 38.9629 11.6538 38.6848L10.261 42.4345C10.2931 42.4464 10.2893 42.4496 10.2671 42.4326C10.2566 42.4245 10.2443 42.4137 10.2317 42.4002C10.2191 42.3868 10.2087 42.3733 10.2006 42.361L13.538 40.156ZM11.6862 38.6972C11.0003 38.4288 10.2643 38.3295 9.53409 38.3295V42.3295C9.91757 42.3295 10.1304 42.3837 10.2286 42.4221L11.6862 38.6972ZM9.53409 38.3295H7.86364V42.3295H9.53409V38.3295ZM5.86364 40.3295V54H9.86364V40.3295H5.86364ZM7.86364 52H3.125V56H7.86364V52ZM11.5959 46.9453L15.9595 54.9567L19.4723 53.0433L15.1086 45.032L11.5959 46.9453ZM17.7159 52H12.5682V56H17.7159V52ZM14.3339 53.0608L10.0726 45.0494L6.54107 46.9279L10.8024 54.9392L14.3339 53.0608ZM8.30682 47.9886H13.3523V43.9886H8.30682V47.9886ZM23.6903 54V56C24.5723 56 25.3501 55.4223 25.605 54.578L23.6903 54ZM18.5767 54L16.6775 53.3731C16.4763 53.9826 16.5799 54.6517 16.9559 55.1718C17.332 55.6919 17.9349 56 18.5767 56V54ZM24.3381 36.5455V34.5455C23.475 34.5455 22.7094 35.099 22.4389 35.9186L24.3381 36.5455ZM30.8153 36.5455L32.7146 35.9186C32.444 35.099 31.6784 34.5455 30.8153 34.5455V36.5455ZM36.5767 54V56C37.2186 56 37.8214 55.6919 38.1975 55.1718C38.5735 54.6517 38.6771 53.9826 38.4759 53.3731L36.5767 54ZM31.4631 54L29.5484 54.578C29.8033 55.4223 30.5811 56 31.4631 56V54ZM27.6449 41.3523L29.5595 40.7743C29.3047 39.93 28.5268 39.3523 27.6449 39.3523V41.3523ZM27.5085 41.3523V39.3523C26.6266 39.3523 25.8488 39.93 25.5939 40.7743L27.5085 41.3523ZM22.7358 47.1136V45.1136C21.6312 45.1136 20.7358 46.0091 20.7358 47.1136H22.7358ZM32.3494 47.1136H34.3494C34.3494 46.0091 33.454 45.1136 32.3494 45.1136V47.1136ZM32.3494 50.6591V52.6591C33.454 52.6591 34.3494 51.7637 34.3494 50.6591H32.3494ZM22.7358 50.6591H20.7358C20.7358 51.7637 21.6312 52.6591 22.7358 52.6591V50.6591ZM23.6903 52H18.5767V56H23.6903V52ZM20.4759 54.6269L26.2373 37.1723L22.4389 35.9186L16.6775 53.3731L20.4759 54.6269ZM24.3381 38.5455H30.8153V34.5455H24.3381V38.5455ZM28.9161 37.1723L34.6775 54.6269L38.4759 53.3731L32.7146 35.9186L28.9161 37.1723ZM36.5767 52H31.4631V56H36.5767V52ZM33.3777 53.422L29.5595 40.7743L25.7302 41.9303L29.5484 54.578L33.3777 53.422ZM27.6449 39.3523H27.5085V43.3523H27.6449V39.3523ZM25.5939 40.7743L21.7757 53.422L25.605 54.578L29.4232 41.9303L25.5939 40.7743ZM22.7358 49.1136H32.3494V45.1136H22.7358V49.1136ZM30.3494 47.1136V50.6591H34.3494V47.1136H30.3494ZM32.3494 48.6591H22.7358V52.6591H32.3494V48.6591ZM24.7358 50.6591V47.1136H20.7358V50.6591H24.7358ZM53.733 43.0909V45.0909C54.2924 45.0909 54.8263 44.8566 55.205 44.4448C55.5837 44.033 55.7727 43.4815 55.726 42.924L53.733 43.0909ZM48.9261 43.0909L46.9334 43.2617C47.0221 44.2963 47.8878 45.0909 48.9261 45.0909V43.0909ZM48.6534 42.0085L46.8218 42.8118C46.8257 42.8208 46.8297 42.8297 46.8338 42.8385L48.6534 42.0085ZM48.0568 41.1733L46.6759 42.62C46.6871 42.6307 46.6984 42.6413 46.7098 42.6517L48.0568 41.1733ZM47.1449 40.6278L46.459 42.5066C46.4678 42.5098 46.4767 42.5129 46.4855 42.516L47.1449 40.6278ZM43.9062 41.0114L42.7582 39.3737L42.7502 39.3793L43.9062 41.0114ZM42.6619 42.6733L40.8009 41.9406L40.796 41.9534L42.6619 42.6733ZM42.6705 47.9574L40.8095 48.6901C40.8118 48.696 40.8142 48.7019 40.8166 48.7078L42.6705 47.9574ZM43.9233 49.5767L42.8139 51.2408C42.8179 51.2435 42.8219 51.2461 42.826 51.2488L43.9233 49.5767ZM47.0682 49.9517L47.6629 51.8612C47.6724 51.8583 47.6819 51.8553 47.6913 51.8522L47.0682 49.9517ZM47.9716 49.4659L49.2418 51.0108L49.2418 51.0108L47.9716 49.4659ZM48.5938 48.7074L46.8392 47.7473L46.8328 47.7592L48.5938 48.7074ZM48.9261 47.6932L48.9403 45.6932C47.9461 45.6862 47.0976 46.4105 46.9487 47.3936L48.9261 47.6932ZM53.733 47.7273L55.7271 47.8807C55.7696 47.3277 55.5806 46.7819 55.2052 46.3736C54.8298 45.9653 54.3017 45.7313 53.7471 45.7273L53.733 47.7273ZM53.1108 49.9858L54.9207 50.8367L54.9232 50.8316L53.1108 49.9858ZM51.5852 52.0994L52.987 53.526L52.9871 53.5259L51.5852 52.0994ZM41.4773 53.2074L40.5234 54.9653L40.5267 54.9671L41.4773 53.2074ZM38.4688 50.1733L36.7155 51.1357L36.7187 51.1414L38.4688 50.1733ZM38.4943 40.3636L40.2363 41.3463L40.2381 41.3431L38.4943 40.3636ZM41.5284 37.3381L42.4729 39.101L42.479 39.0977L41.5284 37.3381ZM48.8324 36.7585L49.4508 34.8565L49.4508 34.8565L48.8324 36.7585ZM51.2699 38.0795L49.9932 39.6191L50.0007 39.6252L51.2699 38.0795ZM52.9574 40.2017L51.1734 41.1058L51.1734 41.1058L52.9574 40.2017ZM53.733 41.0909H48.9261V45.0909H53.733V41.0909ZM50.9188 42.9201C50.8675 42.3218 50.7265 41.7343 50.473 41.1785L46.8338 42.8385C46.8757 42.9305 46.9165 43.0646 46.9334 43.2617L50.9188 42.9201ZM50.485 41.2052C50.233 40.6308 49.8712 40.1208 49.4038 39.6949L46.7098 42.6517C46.7538 42.6917 46.7897 42.7385 46.8218 42.8118L50.485 41.2052ZM49.4378 39.7266C48.9622 39.2726 48.4051 38.9495 47.8043 38.7397L46.4855 42.516C46.6006 42.5562 46.6515 42.5967 46.6759 42.62L49.4378 39.7266ZM47.8308 38.7491C47.2152 38.5244 46.5707 38.4318 45.9261 38.4318V42.4318C46.1907 42.4318 46.3586 42.4699 46.459 42.5066L47.8308 38.7491ZM45.9261 38.4318C44.7964 38.4318 43.7034 38.7111 42.7582 39.3737L45.0543 42.649C45.2114 42.5389 45.4649 42.4318 45.9261 42.4318V38.4318ZM42.7502 39.3793C41.839 40.0248 41.2042 40.9164 40.801 41.9406L44.5229 43.406C44.6878 42.987 44.8826 42.7707 45.0623 42.6434L42.7502 39.3793ZM40.796 41.9534C40.4064 42.9633 40.2443 44.087 40.2443 45.2727H44.2443C44.2443 44.4357 44.3607 43.8265 44.5279 43.3932L40.796 41.9534ZM40.2443 45.2727C40.2443 46.5035 40.406 47.6651 40.8095 48.6901L44.5314 47.2247C44.3668 46.8065 44.2443 46.1783 44.2443 45.2727H40.2443ZM40.8166 48.7078C41.2296 49.7282 41.878 50.6169 42.8139 51.2408L45.0327 47.9126C44.8777 47.8093 44.6908 47.6183 44.5243 47.207L40.8166 48.7078ZM42.826 51.2488C43.7513 51.856 44.8049 52.1136 45.892 52.1136V48.1136C45.4451 48.1136 45.1862 48.0133 45.0206 47.9046L42.826 51.2488ZM45.892 52.1136C46.4913 52.1136 47.089 52.04 47.6629 51.8612L46.4734 48.0422C46.3541 48.0793 46.1678 48.1136 45.892 48.1136V52.1136ZM47.6913 51.8522C48.2497 51.6691 48.7757 51.394 49.2418 51.0108L46.7014 47.9211C46.6561 47.9583 46.5798 48.0071 46.4451 48.0512L47.6913 51.8522ZM49.2418 51.0108C49.7011 50.6331 50.0741 50.1767 50.3547 49.6556L46.8328 47.7592C46.7952 47.829 46.7534 47.8782 46.7014 47.9211L49.2418 51.0108ZM50.3483 49.6674C50.6366 49.1405 50.8153 48.5751 50.9036 47.9928L46.9487 47.3936C46.9233 47.5613 46.8804 47.672 46.8392 47.7474L50.3483 49.6674ZM48.912 49.6931L53.7188 49.7272L53.7471 45.7273L48.9403 45.6932L48.912 49.6931ZM51.7388 47.5739C51.7029 48.041 51.569 48.5602 51.2984 49.14L54.9232 50.8316C55.3685 49.8773 55.6494 48.8908 55.7271 47.8807L51.7388 47.5739ZM51.3009 49.1349C51.0532 49.6616 50.69 50.1751 50.1834 50.673L52.9871 53.5259C53.7986 52.7284 54.4525 51.8327 54.9207 50.8367L51.3009 49.1349ZM50.1835 50.6729C49.7406 51.108 49.1609 51.4902 48.4041 51.7974L49.9084 55.5037C51.0834 55.0268 52.123 54.3749 52.987 53.526L50.1835 50.6729ZM48.4041 51.7974C47.7245 52.0732 46.867 52.2386 45.7898 52.2386V56.2386C47.2694 56.2386 48.6562 56.012 49.9084 55.5037L48.4041 51.7974ZM45.7898 52.2386C44.483 52.2386 43.3781 51.961 42.4278 51.4477L40.5267 54.9671C42.1219 55.8287 43.892 56.2386 45.7898 56.2386V52.2386ZM42.4311 51.4495C41.5194 50.9548 40.7841 50.2271 40.2188 49.2052L36.7187 51.1414C37.6307 52.79 38.9011 54.085 40.5234 54.9653L42.4311 51.4495ZM40.222 49.2109C39.6887 48.2394 39.3693 46.9565 39.3693 45.2727H35.3693C35.3693 47.4526 35.7829 49.4367 36.7155 51.1357L40.222 49.2109ZM39.3693 45.2727C39.3693 43.5817 39.6956 42.3048 40.2363 41.3463L36.7524 39.381C35.7931 41.0816 35.3693 43.0774 35.3693 45.2727H39.3693ZM40.2381 41.3431C40.8135 40.3187 41.5564 39.592 42.4729 39.101L40.584 35.5751C38.955 36.4478 37.6752 37.7381 36.7506 39.3842L40.2381 41.3431ZM42.479 39.0977C43.4355 38.581 44.5248 38.3068 45.7898 38.3068V34.3068C43.9183 34.3068 42.1668 34.7201 40.5779 35.5784L42.479 39.0977ZM45.7898 38.3068C46.7093 38.3068 47.5119 38.4322 48.214 38.6605L49.4508 34.8565C48.3006 34.4825 47.0748 34.3068 45.7898 34.3068V38.3068ZM48.2139 38.6605C48.9174 38.8892 49.5027 39.2123 49.9932 39.6191L52.5466 36.54C51.6394 35.7877 50.5997 35.2301 49.4508 34.8565L48.2139 38.6605ZM50.0007 39.6252C50.4762 40.0157 50.8671 40.5013 51.1734 41.1058L54.7414 39.2976C54.1954 38.2202 53.4613 37.2911 52.5391 36.5339L50.0007 39.6252ZM51.1734 41.1058C51.4664 41.6839 51.6672 42.3901 51.7399 43.2579L55.726 42.924C55.6168 41.6213 55.3007 40.4013 54.7414 39.2976L51.1734 41.1058ZM60.6214 36.5455H62.6214C62.6214 35.4409 61.726 34.5455 60.6214 34.5455V36.5455ZM60.6214 54V56C61.726 56 62.6214 55.1046 62.6214 54H60.6214ZM55.8828 54H53.8828C53.8828 55.1046 54.7782 56 55.8828 56V54ZM55.8828 36.5455V34.5455C54.7782 34.5455 53.8828 35.4409 53.8828 36.5455H55.8828ZM58.6214 36.5455V54H62.6214V36.5455H58.6214ZM60.6214 52H55.8828V56H60.6214V52ZM57.8828 54V36.5455H53.8828V54H57.8828ZM55.8828 38.5455H60.6214V34.5455H55.8828V38.5455ZM77.9695 36.5455H79.9695C79.9695 35.4409 79.074 34.5455 77.9695 34.5455V36.5455ZM77.9695 54V56C79.074 56 79.9695 55.1046 79.9695 54H77.9695ZM74.0149 54L72.367 55.1333C72.7401 55.6759 73.3564 56 74.0149 56V54ZM67.7081 44.8295L69.356 43.6962C68.9829 43.1537 68.3666 42.8295 67.7081 42.8295V44.8295ZM67.6058 44.8295V42.8295C66.5013 42.8295 65.6058 43.725 65.6058 44.8295H67.6058ZM67.6058 54V56C68.7104 56 69.6058 55.1046 69.6058 54H67.6058ZM62.8672 54H60.8672C60.8672 55.1046 61.7626 56 62.8672 56V54ZM62.8672 36.5455V34.5455C61.7626 34.5455 60.8672 35.4409 60.8672 36.5455H62.8672ZM66.8899 36.5455L68.5445 35.4218C68.1722 34.8737 67.5526 34.5455 66.8899 34.5455V36.5455ZM73.0945 45.6818L71.4399 46.8054C71.8122 47.3536 72.4318 47.6818 73.0945 47.6818V45.6818ZM73.2308 45.6818V47.6818C74.3354 47.6818 75.2308 46.7864 75.2308 45.6818H73.2308ZM73.2308 36.5455V34.5455C72.1263 34.5455 71.2308 35.4409 71.2308 36.5455H73.2308ZM75.9695 36.5455V54H79.9695V36.5455H75.9695ZM77.9695 52H74.0149V56H77.9695V52ZM75.6628 52.8667L69.356 43.6962L66.0602 45.9629L72.367 55.1333L75.6628 52.8667ZM67.7081 42.8295H67.6058V46.8295H67.7081V42.8295ZM65.6058 44.8295V54H69.6058V44.8295H65.6058ZM67.6058 52H62.8672V56H67.6058V52ZM64.8672 54V36.5455H60.8672V54H64.8672ZM62.8672 38.5455H66.8899V34.5455H62.8672V38.5455ZM65.2354 37.6691L71.4399 46.8054L74.749 44.5582L68.5445 35.4218L65.2354 37.6691ZM73.0945 47.6818H73.2308V43.6818H73.0945V47.6818ZM75.2308 45.6818V36.5455H71.2308V45.6818H75.2308ZM73.2308 38.5455H77.9695V34.5455H73.2308V38.5455ZM91.5462 42.3068L89.6037 42.7833C89.8232 43.6778 90.6251 44.3068 91.5462 44.3068V42.3068ZM91.1967 41.5142L89.5451 42.6421C89.5495 42.6485 89.5539 42.6548 89.5583 42.6611L91.1967 41.5142ZM90.6001 40.9261L89.4452 42.559C89.4602 42.5696 89.4754 42.58 89.4907 42.5902L90.6001 40.9261ZM89.782 40.5597L89.2467 42.4867C89.2606 42.4906 89.2746 42.4943 89.2886 42.4979L89.782 40.5597ZM86.7308 41.0028L85.6099 39.3465L85.6021 39.3518L86.7308 41.0028ZM85.4524 42.6477L83.6036 41.8847L83.5985 41.8973L85.4524 42.6477ZM85.4354 47.8636L83.5676 48.5787L83.5676 48.5787L85.4354 47.8636ZM86.6797 49.5341L85.5316 51.1718L85.5316 51.1718L86.6797 49.5341ZM90.532 49.7983L89.7337 47.9645L89.7258 47.968L90.532 49.7983ZM91.6143 48.9034L89.9128 47.8524L89.9128 47.8524L91.6143 48.9034ZM91.9723 47.5398L92.1795 45.5505C91.6161 45.4918 91.0542 45.6748 90.6334 46.0541C90.2125 46.4334 89.9723 46.9733 89.9723 47.5398H91.9723ZM92.7905 47.625V49.625C93.8547 49.625 94.7326 48.7916 94.7878 47.7287C94.843 46.6659 94.0562 45.746 92.9977 45.6358L92.7905 47.625ZM88.8018 47.625H86.8018C86.8018 48.7296 87.6973 49.625 88.8018 49.625V47.625ZM88.8018 44.25V42.25C87.6973 42.25 86.8018 43.1454 86.8018 44.25H88.8018ZM96.5405 44.25H98.5405C98.5405 43.1454 97.6451 42.25 96.5405 42.25V44.25ZM95.5263 50.7528L93.8098 49.7264L93.8082 49.729L95.5263 50.7528ZM92.7479 53.3438L93.6526 55.1274L93.656 55.1257L92.7479 53.3438ZM84.2251 53.1562L83.2454 54.8998L83.2454 54.8998L84.2251 53.1562ZM81.2166 50.071L79.454 51.0161L79.4571 51.0219L81.2166 50.071ZM80.799 41.4716L78.9407 40.7321L78.9375 40.7403L80.799 41.4716ZM82.6399 38.6506L84.0385 40.0802L84.0438 40.0751L82.6399 38.6506ZM85.3587 36.9034L86.0711 38.7722L86.0801 38.7688L85.3587 36.9034ZM91.5462 36.75L90.9137 38.6474C90.9186 38.649 90.9234 38.6506 90.9283 38.6522L91.5462 36.75ZM93.907 37.9943L92.6656 39.5624C92.6703 39.5662 92.6752 39.57 92.68 39.5737L93.907 37.9943ZM95.5689 39.8949L97.3037 38.8997L97.3037 38.8997L95.5689 39.8949ZM96.3359 42.3068V44.3068C96.9023 44.3068 97.4422 44.0667 97.8214 43.646C98.2007 43.2253 98.3838 42.6635 98.3252 42.1001L96.3359 42.3068ZM93.4886 41.8304C93.3627 41.317 93.152 40.8198 92.8352 40.3673L89.5583 42.6611C89.5597 42.6632 89.5819 42.6943 89.6037 42.7833L93.4886 41.8304ZM92.8483 40.3863C92.5421 39.9379 92.158 39.561 91.7095 39.262L89.4907 42.5902C89.5196 42.6095 89.5332 42.6246 89.5451 42.6421L92.8483 40.3863ZM91.7551 39.2933C91.2979 38.9699 90.7945 38.7536 90.2753 38.6215L89.2886 42.4979C89.3944 42.5248 89.4365 42.5528 89.4452 42.559L91.7551 39.2933ZM90.3172 38.6326C89.8109 38.492 89.2898 38.4318 88.7678 38.4318V42.4318C88.9843 42.4318 89.1393 42.4569 89.2467 42.4867L90.3172 38.6326ZM88.7678 38.4318C87.6428 38.4318 86.5569 38.7056 85.6099 39.3465L87.8518 42.6592C88.0297 42.5387 88.3019 42.4318 88.7678 42.4318V38.4318ZM85.6021 39.3518C84.6783 39.9833 84.025 40.8638 83.6037 41.8848L87.3012 43.4107C87.4707 42.9998 87.6697 42.7837 87.8596 42.6539L85.6021 39.3518ZM83.5985 41.8973C83.1874 42.9129 83.0178 44.0457 83.0178 45.2386H87.0178C87.0178 44.4089 87.1378 43.8143 87.3063 43.3981L83.5985 41.8973ZM83.0178 45.2386C83.0178 46.4333 83.1791 47.564 83.5676 48.5787L87.3032 47.1486C87.1348 46.7087 87.0178 46.0894 87.0178 45.2386H83.0178ZM83.5676 48.5787C83.9655 49.6183 84.605 50.5221 85.5316 51.1718L87.8277 47.8964C87.6521 47.7733 87.462 47.5635 87.3032 47.1486L83.5676 48.5787ZM85.5316 51.1718C86.486 51.8408 87.5947 52.1136 88.7337 52.1136V48.1136C88.2363 48.1136 87.9756 48.0001 87.8277 47.8964L85.5316 51.1718ZM88.7337 52.1136C89.6332 52.1136 90.5292 51.9849 91.3382 51.6286L89.7258 47.968C89.5802 48.0321 89.2773 48.1136 88.7337 48.1136V52.1136ZM91.3302 51.6321C92.1255 51.2859 92.8303 50.7407 93.3159 49.9544L89.9128 47.8524C89.9117 47.8542 89.9078 47.8611 89.8904 47.8755C89.871 47.8915 89.8247 47.9249 89.7337 47.9645L91.3302 51.6321ZM93.3159 49.9544C93.7777 49.2068 93.9723 48.3765 93.9723 47.5398H89.9723C89.9723 47.7485 89.9283 47.8273 89.9128 47.8524L93.3159 49.9544ZM91.7651 49.529L92.5833 49.6142L92.9977 45.6358L92.1795 45.5505L91.7651 49.529ZM92.7905 45.625H88.8018V49.625H92.7905V45.625ZM90.8018 47.625V44.25H86.8018V47.625H90.8018ZM88.8018 46.25H96.5405V42.25H88.8018V46.25ZM94.5405 44.25V46.6705H98.5405V44.25H94.5405ZM94.5405 46.6705C94.5405 47.9751 94.2653 48.9647 93.8098 49.7264L97.2428 51.7793C98.1396 50.2796 98.5405 48.5476 98.5405 46.6705H94.5405ZM93.8082 49.729C93.3335 50.5256 92.6901 51.1285 91.8398 51.5618L93.656 55.1257C95.1693 54.3545 96.3782 53.2301 97.2443 51.7767L93.8082 49.729ZM91.8431 51.5601C90.9878 51.9939 89.9566 52.2386 88.6996 52.2386V56.2386C90.488 56.2386 92.1556 55.8867 93.6526 55.1274L91.8431 51.5601ZM88.6996 52.2386C87.2907 52.2386 86.1466 51.9419 85.2049 51.4127L83.2454 54.8998C84.8718 55.8138 86.7107 56.2386 88.6996 56.2386V52.2386ZM85.2049 51.4127C84.2609 50.8822 83.5237 50.1334 82.9761 49.1201L79.4571 51.0219C80.3527 52.6791 81.6212 53.9872 83.2454 54.8998L85.2049 51.4127ZM82.9792 49.126C82.4493 48.1376 82.1428 46.8882 82.1428 45.3068H78.1428C78.1428 47.4072 78.5521 49.334 79.454 51.0161L82.9792 49.126ZM82.1428 45.3068C82.1428 44.0637 82.3313 43.041 82.6605 42.2029L78.9375 40.7403C78.3917 42.1295 78.1428 43.6636 78.1428 45.3068H82.1428ZM82.6573 42.2111C83.0068 41.3328 83.4721 40.6344 84.0385 40.0802L81.2413 37.2209C80.2396 38.2009 79.4776 39.3831 78.9407 40.7321L82.6573 42.2111ZM84.0438 40.0751C84.6307 39.4967 85.3015 39.0656 86.0711 38.7722L84.6462 35.0346C83.359 35.5253 82.2173 36.259 81.2361 37.2261L84.0438 40.0751ZM86.0801 38.7688C86.8634 38.4658 87.7195 38.3068 88.6655 38.3068V34.3068C87.2592 34.3068 85.9108 34.5455 84.6373 35.038L86.0801 38.7688ZM88.6655 38.3068C89.5074 38.3068 90.2518 38.4267 90.9137 38.6474L92.1786 34.8526C91.0678 34.4824 89.8918 34.3068 88.6655 34.3068V38.3068ZM90.9283 38.6522C91.6121 38.8743 92.1842 39.1814 92.6656 39.5624L95.1484 36.4262C94.2661 35.7277 93.2643 35.2052 92.1641 34.8478L90.9283 38.6522ZM92.68 39.5737C93.1681 39.9529 93.5472 40.39 93.8341 40.8901L97.3037 38.8997C96.7497 37.9339 96.0208 37.1039 95.1339 36.4149L92.68 39.5737ZM93.8341 40.8901C94.1099 41.3708 94.2834 41.9045 94.3466 42.5135L98.3252 42.1001C98.2067 40.9591 97.8688 39.8848 97.3037 38.8997L93.8341 40.8901ZM96.3359 40.3068H91.5462V44.3068H96.3359V40.3068Z" fill="#0000FF" mask="url(#path-1-outside-1_2_203)"/>
</svg>
